<mxfile host="65bd71144e">
    <diagram id="nZPh1M8KPRNxxlnInnfV" name="第 1 页">
        <mxGraphModel dx="773" dy="363" grid="1" gridSize="10" guides="1" tooltips="1" connect="1" arrows="1" fold="1" page="1" pageScale="1" pageWidth="1169" pageHeight="827" math="0" shadow="0">
            <root>
                <mxCell id="0"/>
                <mxCell id="1" parent="0"/>
                <mxCell id="2" value="" style="group" parent="1" vertex="1" connectable="0">
                    <mxGeometry x="415.3" y="50" width="120" height="160" as="geometry"/>
                </mxCell>
                <mxCell id="3" value="" style="whiteSpace=wrap;html=1;" parent="2" vertex="1">
                    <mxGeometry width="120" height="150" as="geometry"/>
                </mxCell>
                <mxCell id="4" value="Monster" style="text;html=1;align=center;verticalAlign=middle;resizable=0;points=[];autosize=1;strokeColor=none;fillColor=none;" parent="2" vertex="1">
                    <mxGeometry x="25" width="70" height="30" as="geometry"/>
                </mxCell>
                <mxCell id="5" value="" style="edgeStyle=none;orthogonalLoop=1;jettySize=auto;html=1;endArrow=none;endFill=0;entryX=0.999;entryY=0.133;entryDx=0;entryDy=0;entryPerimeter=0;" parent="2" edge="1">
                    <mxGeometry width="100" relative="1" as="geometry">
                        <mxPoint x="0.12000000000000455" y="80.23000000000002" as="sourcePoint"/>
                        <mxPoint x="119.99999999999989" y="80" as="targetPoint"/>
                        <Array as="points"/>
                    </mxGeometry>
                </mxCell>
                <mxCell id="7" value="&lt;div style=&quot;&quot;&gt;+Monster()&lt;/div&gt;&lt;div style=&quot;&quot;&gt;+~Monster()&lt;/div&gt;" style="text;html=1;align=left;verticalAlign=middle;resizable=0;points=[];autosize=1;strokeColor=none;fillColor=none;" parent="2" vertex="1">
                    <mxGeometry x="10" y="95" width="90" height="40" as="geometry"/>
                </mxCell>
                <mxCell id="8" value="" style="edgeStyle=none;orthogonalLoop=1;jettySize=auto;html=1;endArrow=none;endFill=0;entryX=0.999;entryY=0.133;entryDx=0;entryDy=0;entryPerimeter=0;" parent="2" edge="1">
                    <mxGeometry width="100" relative="1" as="geometry">
                        <mxPoint x="5.684341886080802e-14" y="30.230000000000018" as="sourcePoint"/>
                        <mxPoint x="119.87999999999982" y="30" as="targetPoint"/>
                        <Array as="points"/>
                    </mxGeometry>
                </mxCell>
                <mxCell id="6" value="&lt;div style=&quot;text-align: left;&quot;&gt;&lt;span style=&quot;background-color: initial;&quot;&gt;#mLife&lt;/span&gt;&lt;/div&gt;&lt;font style=&quot;&quot;&gt;&lt;div style=&quot;text-align: left;&quot;&gt;&lt;span style=&quot;background-color: initial;&quot;&gt;#mMagic&lt;/span&gt;&lt;/div&gt;&lt;font style=&quot;font-size: 12px;&quot;&gt;&lt;div style=&quot;text-align: left;&quot;&gt;&lt;span style=&quot;background-color: initial;&quot;&gt;#mAttack&lt;/span&gt;&lt;/div&gt;&lt;/font&gt;&lt;/font&gt;" style="text;html=1;align=center;verticalAlign=middle;resizable=0;points=[];autosize=1;strokeColor=none;fillColor=none;" parent="2" vertex="1">
                    <mxGeometry x="10" y="30" width="70" height="60" as="geometry"/>
                </mxCell>
                <mxCell id="36" value="" style="group" parent="1" vertex="1" connectable="0">
                    <mxGeometry x="229.3999999999999" y="260" width="150.6000000000001" height="90" as="geometry"/>
                </mxCell>
                <mxCell id="31" value="" style="whiteSpace=wrap;html=1;" parent="36" vertex="1">
                    <mxGeometry x="0.600000000000108" width="150" height="90" as="geometry"/>
                </mxCell>
                <mxCell id="32" value="" style="edgeStyle=none;orthogonalLoop=1;jettySize=auto;html=1;endArrow=none;endFill=0;entryX=1.004;entryY=0.341;entryDx=0;entryDy=0;entryPerimeter=0;" parent="36" target="31" edge="1">
                    <mxGeometry width="100" relative="1" as="geometry">
                        <mxPoint x="0.5999999999999943" y="30.22999999999996" as="sourcePoint"/>
                        <mxPoint x="120.4800000000001" y="30" as="targetPoint"/>
                        <Array as="points"/>
                    </mxGeometry>
                </mxCell>
                <mxCell id="33" value="" style="edgeStyle=none;orthogonalLoop=1;jettySize=auto;html=1;endArrow=none;endFill=0;entryX=1.004;entryY=0.341;entryDx=0;entryDy=0;entryPerimeter=0;" parent="36" edge="1">
                    <mxGeometry width="100" relative="1" as="geometry">
                        <mxPoint y="44.76999999999998" as="sourcePoint"/>
                        <mxPoint x="150.6000000000001" y="45.23000000000002" as="targetPoint"/>
                        <Array as="points"/>
                    </mxGeometry>
                </mxCell>
                <mxCell id="34" value="UndeadMonster" style="text;html=1;align=center;verticalAlign=middle;resizable=0;points=[];autosize=1;strokeColor=none;fillColor=none;" parent="36" vertex="1">
                    <mxGeometry x="20.600000000000108" width="110" height="30" as="geometry"/>
                </mxCell>
                <mxCell id="35" value="+UndeadMonster()" style="text;html=1;align=center;verticalAlign=middle;resizable=0;points=[];autosize=1;strokeColor=none;fillColor=none;" parent="36" vertex="1">
                    <mxGeometry x="15.600000000000108" y="50" width="120" height="30" as="geometry"/>
                </mxCell>
                <mxCell id="37" value="" style="group" parent="1" vertex="1" connectable="0">
                    <mxGeometry x="400" y="260" width="150.6000000000001" height="90" as="geometry"/>
                </mxCell>
                <mxCell id="38" value="" style="whiteSpace=wrap;html=1;" parent="37" vertex="1">
                    <mxGeometry x="0.600000000000108" width="150" height="90" as="geometry"/>
                </mxCell>
                <mxCell id="39" value="" style="edgeStyle=none;orthogonalLoop=1;jettySize=auto;html=1;endArrow=none;endFill=0;entryX=1.004;entryY=0.341;entryDx=0;entryDy=0;entryPerimeter=0;" parent="37" target="38" edge="1">
                    <mxGeometry width="100" relative="1" as="geometry">
                        <mxPoint x="0.5999999999999943" y="30.22999999999996" as="sourcePoint"/>
                        <mxPoint x="120.4800000000001" y="30" as="targetPoint"/>
                        <Array as="points"/>
                    </mxGeometry>
                </mxCell>
                <mxCell id="40" value="" style="edgeStyle=none;orthogonalLoop=1;jettySize=auto;html=1;endArrow=none;endFill=0;entryX=1.004;entryY=0.341;entryDx=0;entryDy=0;entryPerimeter=0;" parent="37" edge="1">
                    <mxGeometry width="100" relative="1" as="geometry">
                        <mxPoint y="44.76999999999998" as="sourcePoint"/>
                        <mxPoint x="150.6000000000001" y="45.23000000000002" as="targetPoint"/>
                        <Array as="points"/>
                    </mxGeometry>
                </mxCell>
                <mxCell id="41" value="ElementMonster" style="text;html=1;align=center;verticalAlign=middle;resizable=0;points=[];autosize=1;strokeColor=none;fillColor=none;" parent="37" vertex="1">
                    <mxGeometry x="20.600000000000108" width="110" height="30" as="geometry"/>
                </mxCell>
                <mxCell id="42" value="+ElementMonster()" style="text;html=1;align=center;verticalAlign=middle;resizable=0;points=[];autosize=1;strokeColor=none;fillColor=none;" parent="37" vertex="1">
                    <mxGeometry x="10.600000000000108" y="50" width="130" height="30" as="geometry"/>
                </mxCell>
                <mxCell id="43" value="" style="group" parent="1" vertex="1" connectable="0">
                    <mxGeometry x="570" y="260" width="150.6000000000001" height="90" as="geometry"/>
                </mxCell>
                <mxCell id="44" value="" style="whiteSpace=wrap;html=1;" parent="43" vertex="1">
                    <mxGeometry x="0.600000000000108" width="150" height="90" as="geometry"/>
                </mxCell>
                <mxCell id="45" value="" style="edgeStyle=none;orthogonalLoop=1;jettySize=auto;html=1;endArrow=none;endFill=0;entryX=1.004;entryY=0.341;entryDx=0;entryDy=0;entryPerimeter=0;" parent="43" target="44" edge="1">
                    <mxGeometry width="100" relative="1" as="geometry">
                        <mxPoint x="0.5999999999999943" y="30.22999999999996" as="sourcePoint"/>
                        <mxPoint x="120.4800000000001" y="30" as="targetPoint"/>
                        <Array as="points"/>
                    </mxGeometry>
                </mxCell>
                <mxCell id="46" value="" style="edgeStyle=none;orthogonalLoop=1;jettySize=auto;html=1;endArrow=none;endFill=0;entryX=1.004;entryY=0.341;entryDx=0;entryDy=0;entryPerimeter=0;" parent="43" edge="1">
                    <mxGeometry width="100" relative="1" as="geometry">
                        <mxPoint y="44.76999999999998" as="sourcePoint"/>
                        <mxPoint x="150.6000000000001" y="45.23000000000002" as="targetPoint"/>
                        <Array as="points"/>
                    </mxGeometry>
                </mxCell>
                <mxCell id="62" value="MechanicMonster" style="text;html=1;align=center;verticalAlign=middle;resizable=0;points=[];autosize=1;strokeColor=none;fillColor=none;" parent="43" vertex="1">
                    <mxGeometry x="15.600000000000023" width="120" height="30" as="geometry"/>
                </mxCell>
                <mxCell id="63" value="+MechanicMonster" style="text;html=1;align=center;verticalAlign=middle;resizable=0;points=[];autosize=1;strokeColor=none;fillColor=none;" parent="43" vertex="1">
                    <mxGeometry x="10.600000000000023" y="50" width="130" height="30" as="geometry"/>
                </mxCell>
                <mxCell id="66" style="edgeStyle=orthogonalEdgeStyle;html=1;" parent="1" source="41" edge="1">
                    <mxGeometry relative="1" as="geometry">
                        <mxPoint x="475.60000000000014" y="200" as="targetPoint"/>
                    </mxGeometry>
                </mxCell>
                <mxCell id="71" style="edgeStyle=orthogonalEdgeStyle;html=1;entryX=0.5;entryY=1;entryDx=0;entryDy=0;endArrow=none;endFill=0;rounded=0;" parent="1" source="34" target="3" edge="1">
                    <mxGeometry relative="1" as="geometry">
                        <Array as="points">
                            <mxPoint x="305" y="230"/>
                            <mxPoint x="475" y="230"/>
                        </Array>
                    </mxGeometry>
                </mxCell>
                <mxCell id="73" style="edgeStyle=orthogonalEdgeStyle;rounded=0;html=1;entryX=0.5;entryY=1;entryDx=0;entryDy=0;endArrow=none;endFill=0;" parent="1" source="62" target="3" edge="1">
                    <mxGeometry relative="1" as="geometry">
                        <Array as="points">
                            <mxPoint x="646" y="230"/>
                            <mxPoint x="475" y="230"/>
                        </Array>
                    </mxGeometry>
                </mxCell>
                <mxCell id="78" value="" style="group" parent="1" vertex="1" connectable="0">
                    <mxGeometry x="40" y="310" width="150.6000000000001" height="90" as="geometry"/>
                </mxCell>
                <mxCell id="74" value="" style="group;fillColor=#eeeeee;strokeColor=#36393d;container=0;" parent="78" vertex="1" connectable="0">
                    <mxGeometry width="150.6000000000001" height="90" as="geometry"/>
                </mxCell>
                <mxCell id="75" value="" style="whiteSpace=wrap;html=1;fillColor=#647687;strokeColor=#314354;fontColor=#ffffff;" parent="78" vertex="1">
                    <mxGeometry x="0.600000000000108" width="150" height="90" as="geometry"/>
                </mxCell>
                <mxCell id="76" value="" style="edgeStyle=none;orthogonalLoop=1;jettySize=auto;html=1;endArrow=none;endFill=0;entryX=1.004;entryY=0.341;entryDx=0;entryDy=0;entryPerimeter=0;rounded=0;" parent="78" target="75" edge="1">
                    <mxGeometry width="100" relative="1" as="geometry">
                        <mxPoint x="0.5999999999999943" y="30.22999999999996" as="sourcePoint"/>
                        <mxPoint x="120.4800000000001" y="30" as="targetPoint"/>
                        <Array as="points"/>
                    </mxGeometry>
                </mxCell>
                <mxCell id="77" value="" style="edgeStyle=none;orthogonalLoop=1;jettySize=auto;html=1;endArrow=none;endFill=0;entryX=1.004;entryY=0.341;entryDx=0;entryDy=0;entryPerimeter=0;rounded=0;" parent="78" edge="1">
                    <mxGeometry width="100" relative="1" as="geometry">
                        <mxPoint y="44.76999999999998" as="sourcePoint"/>
                        <mxPoint x="150.6000000000001" y="45.23000000000002" as="targetPoint"/>
                        <Array as="points"/>
                    </mxGeometry>
                </mxCell>
                <mxCell id="79" value="MonsterFactory" style="text;html=1;align=center;verticalAlign=middle;resizable=0;points=[];autosize=1;strokeColor=none;fillColor=none;" parent="78" vertex="1">
                    <mxGeometry x="20.299999999999997" width="110" height="30" as="geometry"/>
                </mxCell>
                <mxCell id="81" value="&lt;span style=&quot;color: rgba(0, 0, 0, 0); font-family: monospace; font-size: 0px; text-align: start;&quot;&gt;%3CmxGraphModel%3E%3Croot%3E%3CmxCell%20id%3D%220%22%2F%3E%3CmxCell%20id%3D%221%22%20parent%3D%220%22%2F%3E%3CmxCell%20id%3D%222%22%20value%3D%22%26lt%3Bi%26gt%3B%2BcreateMonster()%26lt%3B%2Fi%26gt%3B%22%20style%3D%22text%3Bhtml%3D1%3Balign%3Dcenter%3BverticalAlign%3Dmiddle%3Bresizable%3D0%3Bpoints%3D%5B%5D%3Bautosize%3D1%3BstrokeColor%3Dnone%3BfillColor%3Dnone%3B%22%20vertex%3D%221%22%20parent%3D%221%22%3E%3CmxGeometry%20x%3D%22105.60000000000002%22%20y%3D%22460%22%20width%3D%22120%22%20height%3D%2230%22%20as%3D%22geometry%22%2F%3E%3C%2FmxCell%3E%3C%2Froot%3E%3C%2FmxGraphModel%3E&lt;/span&gt;" style="text;html=1;align=center;verticalAlign=middle;resizable=0;points=[];autosize=1;strokeColor=none;fillColor=none;" parent="78" vertex="1">
                    <mxGeometry x="65.3" y="50" width="20" height="30" as="geometry"/>
                </mxCell>
                <mxCell id="88" value="&lt;i&gt;+createMonster()&lt;/i&gt;" style="text;html=1;align=center;verticalAlign=middle;resizable=0;points=[];autosize=1;strokeColor=none;fillColor=none;" vertex="1" parent="78">
                    <mxGeometry x="20.300000000000026" y="50" width="120" height="30" as="geometry"/>
                </mxCell>
                <mxCell id="82" style="edgeStyle=orthogonalEdgeStyle;rounded=0;html=1;exitX=0.75;exitY=1;exitDx=0;exitDy=0;entryX=0.5;entryY=1;entryDx=0;entryDy=0;endArrow=classic;endFill=1;dashed=1;" parent="1" source="75" target="31" edge="1">
                    <mxGeometry relative="1" as="geometry"/>
                </mxCell>
                <mxCell id="83" style="edgeStyle=orthogonalEdgeStyle;rounded=0;html=1;entryX=0.5;entryY=1;entryDx=0;entryDy=0;dashed=1;endArrow=classic;endFill=1;exitX=0.5;exitY=1;exitDx=0;exitDy=0;" parent="1" source="75" target="38" edge="1">
                    <mxGeometry relative="1" as="geometry">
                        <Array as="points">
                            <mxPoint x="116" y="450"/>
                            <mxPoint x="476" y="450"/>
                        </Array>
                    </mxGeometry>
                </mxCell>
                <mxCell id="84" style="edgeStyle=orthogonalEdgeStyle;rounded=0;html=1;exitX=0.25;exitY=1;exitDx=0;exitDy=0;entryX=0.5;entryY=1;entryDx=0;entryDy=0;dashed=1;endArrow=classic;endFill=1;" parent="1" source="75" target="44" edge="1">
                    <mxGeometry relative="1" as="geometry">
                        <Array as="points">
                            <mxPoint x="78" y="480"/>
                            <mxPoint x="646" y="480"/>
                        </Array>
                    </mxGeometry>
                </mxCell>
                <mxCell id="85" value="创建" style="text;html=1;align=center;verticalAlign=middle;resizable=0;points=[];autosize=1;strokeColor=none;fillColor=none;" parent="1" vertex="1">
                    <mxGeometry x="260" y="384" width="50" height="30" as="geometry"/>
                </mxCell>
                <mxCell id="86" value="创建" style="text;html=1;align=center;verticalAlign=middle;resizable=0;points=[];autosize=1;strokeColor=none;fillColor=none;" parent="1" vertex="1">
                    <mxGeometry x="430" y="420" width="50" height="30" as="geometry"/>
                </mxCell>
                <mxCell id="87" value="创建" style="text;html=1;align=center;verticalAlign=middle;resizable=0;points=[];autosize=1;strokeColor=none;fillColor=none;" parent="1" vertex="1">
                    <mxGeometry x="600" y="450" width="50" height="30" as="geometry"/>
                </mxCell>
            </root>
        </mxGraphModel>
    </diagram>
</mxfile>